<?xml version="1.0" standalone="no"?>
<!DOCTYPE svg PUBLIC "-//W3C//DTD SVG 20010904//EN"
 "http://www.w3.org/TR/2001/REC-SVG-20010904/DTD/svg10.dtd">
<svg version="1.0" xmlns="http://www.w3.org/2000/svg"
 width="700.000000pt" height="700.000000pt" viewBox="0 0 700.000000 700.000000"
 preserveAspectRatio="xMidYMid meet">
<metadata>
Created by potrace 1.14, written by Peter Selinger 2001-2017
</metadata>
<g transform="translate(0.000000,700.000000) scale(0.100000,-0.100000)"
fill="#000000" stroke="none">
<path d="M4847 5444 c-1 -1 -34 -5 -73 -8 -39 -4 -82 -9 -95 -11 -13 -3 -42
-7 -64 -10 -87 -11 -105 -14 -225 -40 -69 -14 -135 -28 -148 -31 -57 -12 -182
-56 -182 -64 0 -6 60 -39 133 -76 72 -36 135 -69 139 -73 14 -12 20 -639 22
-1963 l1 -1287 -25 16 c-69 44 -279 206 -284 219 -3 9 -6 318 -6 687 -1 370
-2 683 -4 697 -2 14 -7 44 -10 67 -44 287 -214 491 -457 549 -55 13 -215 12
-269 -2 -156 -41 -289 -113 -500 -270 -69 -51 -129 -93 -134 -94 -5 -1 -17 19
-26 43 -43 113 -143 218 -263 277 -91 44 -109 49 -217 56 -67 5 -124 -2 -232
-30 -10 -3 -62 -27 -117 -55 -105 -52 -198 -112 -349 -223 -50 -37 -95 -68
-98 -68 -3 0 -3 12 0 28 3 15 8 101 12 190 l6 164 -48 -7 c-109 -14 -398 -86
-489 -121 -22 -9 -42 -15 -45 -15 -3 1 -30 -8 -60 -19 -59 -22 -111 -59 -95
-66 6 -2 55 -33 110 -67 l100 -63 -1 -679 c0 -525 -6 -984 -14 -1011 0 -1 -57
-44 -127 -95 -169 -125 -160 -117 -147 -126 7 -5 61 -5 120 -2 140 7 908 4
922 -5 5 -3 15 0 21 8 9 10 -12 33 -100 106 -61 52 -115 105 -120 118 -14 37
-19 248 -23 934 l-4 626 22 20 c59 53 191 117 290 141 219 54 438 -92 484
-324 8 -38 6 -885 -2 -1150 -5 -171 -11 -255 -19 -261 -5 -4 -99 -84 -152
-129 -32 -27 -65 -55 -74 -62 -28 -20 -5 -25 96 -22 142 4 689 4 818 0 130 -4
141 5 68 59 -27 19 -82 62 -123 94 l-75 60 -2 695 c-1 534 -5 716 -15 784 -14
84 -13 88 6 105 34 30 146 96 206 121 74 32 100 36 210 36 81 0 103 -4 150
-26 109 -51 204 -177 231 -307 9 -42 10 -198 5 -607 -3 -302 -9 -604 -12 -670
l-5 -120 -106 -106 c-58 -59 -103 -111 -100 -115 3 -5 54 -6 114 -3 132 7 901
4 909 -4 4 -3 16 -2 28 3 20 7 22 6 18 -15 -3 -17 1 -24 15 -27 54 -12 361 97
437 155 17 13 28 8 113 -46 148 -92 216 -121 288 -120 229 1 528 106 730 255
142 105 280 262 357 408 20 38 58 122 63 140 1 3 7 25 15 50 19 63 17 56 36
155 34 182 19 420 -38 590 -101 304 -351 538 -673 629 -129 37 -196 45 -320
42 -91 -3 -125 -9 -195 -33 -85 -30 -205 -86 -267 -124 l-33 -21 -1 24 c-2 47
1 447 7 978 l5 546 -21 0 c-11 0 -22 -1 -23 -2z m436 -1568 c156 -25 314 -133
412 -281 72 -109 133 -277 151 -415 3 -25 7 -56 10 -70 7 -40 6 -249 -1 -315
-50 -459 -303 -770 -650 -801 -99 -9 -285 24 -319 56 -11 11 -11 1749 1 1761
14 14 144 60 187 66 23 3 42 6 44 8 4 3 129 -3 165 -9z"/>
</g>
</svg>
